<?xml version="1.0" standalone="no"?>
<!DOCTYPE svg PUBLIC "-//W3C//DTD SVG 20010904//EN"
 "http://www.w3.org/TR/2001/REC-SVG-20010904/DTD/svg10.dtd">
<svg version="1.0" xmlns="http://www.w3.org/2000/svg"
 width="800.000000pt" height="800.000000pt" viewBox="0 0 800.000000 800.000000"
 preserveAspectRatio="xMidYMid meet">

<g transform="translate(0.000000,800.000000) scale(0.100000,-0.100000)"
fill="#000000" stroke="none">
<path d="M3943 7051 c-64 -29 -73 -57 -73 -211 l0 -130 -171 0 c-204 0 -230
-8 -261 -78 -24 -54 -18 -101 20 -143 36 -41 78 -48 260 -49 l152 0 0 -225 0
-225 -27 -11 c-117 -47 -178 -85 -256 -159 -97 -92 -172 -195 -228 -314 -64
-136 -74 -189 -74 -372 l0 -160 -65 42 c-142 91 -340 178 -515 224 -657 176
-1271 -44 -1626 -582 -124 -189 -184 -440 -159 -668 25 -227 113 -435 278
-660 74 -100 333 -358 452 -450 108 -83 298 -212 383 -259 l57 -33 0 -256 c0
-244 1 -255 17 -224 39 80 460 255 833 346 345 84 651 119 1055 119 618 1
1143 -98 1627 -305 177 -76 252 -121 271 -160 16 -31 17 -20 17 222 l0 255 95
58 c244 148 440 303 615 483 287 296 427 560 460 867 25 231 -38 488 -167 678
-425 625 -1194 804 -1939 449 -67 -32 -153 -78 -192 -103 l-70 -45 5 126 c4
91 1 150 -10 208 -33 175 -130 349 -276 495 -94 94 -141 124 -273 178 l-28 11
0 225 0 225 153 0 c181 1 223 8 259 49 38 42 44 89 20 143 -31 70 -57 78 -261
78 l-171 0 0 130 c0 154 -9 182 -73 211 -23 10 -49 19 -57 19 -8 0 -34 -9 -57
-19z m-1560 -1956 c289 -38 576 -148 842 -323 163 -107 260 -185 390 -316 130
-130 212 -229 298 -360 34 -52 68 -102 75 -113 12 -17 12 -17 25 1 6 10 40 61
74 112 220 334 560 633 924 811 641 315 1272 259 1685 -152 162 -160 229 -285
265 -489 18 -107 7 -322 -24 -426 -110 -381 -419 -737 -903 -1041 l-126 -78
-1 -55 c-2 -62 -27 -98 -86 -123 -41 -17 -79 -10 -146 27 -160 88 -482 203
-725 259 -328 74 -543 96 -950 96 -408 0 -607 -20 -950 -97 -239 -53 -586
-178 -733 -262 -58 -33 -98 -40 -138 -23 -59 25 -84 61 -86 123 l-1 54 -131
83 c-408 257 -713 577 -846 887 -58 135 -77 219 -82 371 -6 154 3 226 48 364
32 102 89 192 190 300 278 297 672 428 1112 370z"/>
<path d="M1960 4819 c-179 -39 -326 -116 -457 -242 -108 -104 -155 -174 -181
-274 -84 -317 22 -607 338 -923 168 -168 334 -292 584 -436 l108 -63 52 21
c169 67 238 91 377 132 285 82 593 134 924 156 93 6 170 12 170 13 0 1 -2 99
-5 217 l-5 215 -53 104 c-96 189 -202 339 -347 490 -283 295 -630 499 -993
582 -135 31 -388 35 -512 8z"/>
<path d="M5625 4829 c-235 -34 -518 -150 -745 -307 -301 -207 -531 -466 -687
-773 -64 -127 -59 -89 -65 -421 l-3 -127 95 -6 c521 -33 932 -116 1302 -264
l123 -49 75 41 c406 219 756 540 899 824 86 171 109 380 62 551 -30 107 -77
177 -190 284 -136 129 -274 200 -458 237 -108 22 -292 27 -408 10z"/>
<path d="M3725 2304 c-22 -2 -92 -9 -155 -14 -444 -41 -860 -153 -1212 -326
-61 -30 -123 -54 -137 -54 -40 0 -92 33 -113 71 -18 33 -18 30 -17 -246 0
-154 3 -273 6 -265 24 65 273 188 583 288 411 133 825 193 1320 193 135 0 306
-5 380 -11 511 -42 994 -167 1360 -350 109 -55 150 -85 163 -120 3 -8 6 111 6
265 1 276 1 279 -17 246 -21 -38 -73 -71 -113 -71 -14 0 -76 24 -137 54 -338
166 -703 267 -1162 322 -127 15 -657 28 -755 18z"/>
<path d="M3775 1684 c-376 -28 -609 -65 -884 -140 -184 -50 -433 -147 -585
-228 -27 -14 -65 -26 -85 -26 l-35 0 23 -17 c13 -9 88 -48 165 -88 351 -178
751 -291 1208 -341 208 -23 627 -23 835 -1 494 55 936 187 1300 389 l96 53
-46 7 c-26 3 -62 16 -80 27 -18 11 -84 43 -145 70 -312 139 -676 232 -1089
276 -132 15 -574 27 -678 19z"/>
</g>
</svg>
